<?xml version="1.0" encoding="utf-8"?>
<!-- Generator: Adobe Illustrator 18.1.0, SVG Export Plug-In . SVG Version: 6.00 Build 0)  -->
<svg version="1.1" id="Layer_1" xmlns="http://www.w3.org/2000/svg" xmlns:xlink="http://www.w3.org/1999/xlink" x="0px" y="0px"
	 viewBox="0 0 300 300" enable-background="new 0 0 300 300" xml:space="preserve">
<g>
	<polygon fill="none" points="99.2,193.1 99,192.5 99,192.5 94.1,192.4 94,192.4 98.8,193 	"/>
	<path fill="none" d="M131.4,83.2c0.8,3.2,1.6,6.6,2.6,9.4c-1-2.8-1.9-6.2-2.6-9.5c-0.4-1.6-0.7-3-1-4.5
		C130.7,80.1,131.1,81.6,131.4,83.2z"/>
	<polygon fill="none" points="105.1,242 104,242 107.1,242 107,242 	"/>
	<path fill="none" d="M123.3,94c0,0-0.9-4-1.7-10C122.4,91.2,123.3,94,123.3,94z"/>
	<path fill="none" d="M176.2,94c0,0-0.8-4-2.4-10C175.4,91.2,176.2,94,176.2,94z"/>
	<path fill="none" d="M121.3,82.6c-0.5-3.5-0.9-7.5-1.1-11.7C120.5,75.6,120.9,80,121.3,82.6z"/>
	<polygon fill="none" points="155,241.8 156,241.9 163.8,241.9 163.8,241.9 	"/>
	<polygon fill="none" points="129.5,112.8 129.2,114.5 112,126.9 129.2,114.6 	"/>
	<polygon fill="none" points="53.4,242 53.4,242 67.7,164.9 	"/>
	<polygon fill="none" points="156,127.1 156,126.9 136.9,116.3 131.1,100.4 131.1,100.5 136.8,116.4 	"/>
	<polygon fill="none" points="152.5,150.1 152.3,151.7 112,139.3 152.3,151.7 	"/>
	<polygon fill="none" points="111.9,165 112.4,242 112.4,242 	"/>
	<polygon fill="none" points="112,242 112,242 140.8,242 154.7,241.8 	"/>
	<polygon fill="none" points="169.5,148.2 166.5,196 169.5,148.2 154.6,136.7 154.6,136.7 	"/>
	<path fill="none" d="M178.7,64.8c4.7-8.3,12.6-24.7,5.3-31.5c-4.1-3.8-11.6,1.1-19.1,8.1c6.2,6.6,10.6,15.2,13.7,23.5
		c0.4,1.1,0.8,2.2,1.2,3.4c0.3,0.9,0.6,1.8,0.8,2.6c-0.3-1-0.5-1.9-0.8-2.9C179.5,67,179.1,65.9,178.7,64.8z"/>
	<path fill="none" d="M183.9,83.2c0.1,0.3,0.1,0.6,0.2,0.8c-0.1-0.3-0.1-0.7-0.2-1c0-0.2-0.1-0.3-0.1-0.5
		C183.8,82.7,183.8,83,183.9,83.2z"/>
	<path fill="none" d="M169,68c-2.5-7.3-5.6-15-9.4-21.3c-0.9-1.5-1.8-2.9-2.8-4.3c-6.1-8.6-13.6-13.1-22.3-7.6
		c-6,3.9-7.4,18.1-5.7,33.5c0,0.4,0.1,0.8,0.1,1.1c0-0.5-0.1-0.9-0.1-1.4H169z M156.9,42.4c1,1.3,1.9,2.8,2.8,4.3
		c-8.3,8.9-15.3,18.6-15.3,18.6S149,52.6,156.9,42.4z"/>
	<path fill="none" d="M170.1,71.2c1.3,4.6,2.5,8.8,3.4,11.3C172.5,79.1,171.4,75.3,170.1,71.2z"/>
	<path fill="#F1CAC4" d="M164.9,41.4c7.4-7,14.9-11.9,19.1-8.1c7.3,6.7-0.6,23.2-5.3,31.5c0.4,1.1,0.8,2.2,1.2,3.2h4.8
		c3.1-7,14.5-36.6-7.3-37.9c-6.1-0.4-11.6,2.9-16.3,7.6c1.3,1,2.5,2.2,3.6,3.4C164.8,41.2,164.9,41.3,164.9,41.4
		C164.9,41.4,164.9,41.4,164.9,41.4z"/>
	<path fill="#F1CAC4" d="M156.9,42.4c-7.9,10.1-12.6,22.8-12.6,22.8s7-9.7,15.3-18.6C158.8,45.2,157.9,43.8,156.9,42.4z"/>
	<path fill="#FFC425" d="M67.7,165h29.8l-0.9-19.9l15.4-9.7v-8.5l17.2-12.4l0.2-1.7l1.6-12.4l0,0l0-0.1l5.7,15.9l19.2,10.6l0,0.2
		l0,0l-1.5,9.6l14.9,11.5l-2.9,47.8h8.5v-7h52.1l-2,28h23v24.8l8.4,0l0.1,1.2h0.4L227.7,83h-43.9c0.1,0.3,0.1,0.7,0.2,1
		c1.2,6,1.6,10,1.6,10h-9.5c0,0-0.8-2.8-2.4-10c-0.1-0.3-0.1-0.5-0.2-0.8c0-0.1,0-0.1,0-0.2h-42.1c0.8,3.4,1.6,6.8,2.6,9.5
		c0.2,0.5,0.4,1,0.5,1.5h-11.3c0,0-0.9-2.8-1.7-10c0-0.3-0.1-0.5-0.1-0.8c0-0.1,0-0.1,0-0.2H80.2L53.4,242h0L67.7,165z"/>
	<polygon fill="#FFC425" points="141,242 155,241.9 155,241.8 	"/>
	<path fill="#FFD9A4" d="M121.3,82.6c-0.5-2.6-0.9-7-1.1-11.7c0-0.8-0.1-1.7-0.1-2.5c0-0.1,0-0.2,0-0.3H93v8.6L80.2,83h41.2
		C121.4,82.9,121.4,82.7,121.3,82.6z"/>
	<path fill="#FFD9A4" d="M170.1,71.2c-0.3-0.9-0.6-1.9-1-2.9c0-0.1-0.1-0.2-0.1-0.3h-40.2c0,0.5,0.1,0.9,0.1,1.4
		c0.4,3,0.8,6.1,1.4,9.1c0.3,1.5,0.6,2.9,1,4.5h42.1c0-0.2-0.1-0.3-0.1-0.5C172.5,80,171.4,75.7,170.1,71.2z"/>
	<path fill="#FFD9A4" d="M180.7,70.9c1.3,4.2,2.3,8.1,3,11.6c0,0.2,0.1,0.3,0.1,0.5h43.9L216,76.6V68h-31.3h-4.8
		C180.2,69,180.5,69.9,180.7,70.9z"/>
	<path fill="#019CDB" d="M163.8,241.9L163.8,241.9l46.2,0V217h15l2-28H175v7h-8.5l-2.4,45.9L163.8,241.9z M215,195v3h-2.1l-0.8-3
		H215z M202,214h-1.6l-1.1-3h2.8V214z M203,195v5h-3.5l-1.2-5H203z M184,195v3h-0.8l-0.8-3H184z M184,223v4h-1.8l-1.1-4H184z
		 M177,202v6h-2.2l-1.1-6H177z"/>
	<polygon fill="#FFC425" points="155,241.9 156,241.9 155,241.8 	"/>
	<polygon opacity="0.92" fill="#019CDB" points="155,241.9 156,241.9 155,241.8 	"/>
	<rect x="112.4" y="242" fill="#4CA950" width="0" height="0"/>
	<path fill="#4CA950" d="M112.4,242l42.6-0.2l8.8,0.1l0.4,0l2.4-45.9l2.9-47.8l-14.9-11.5l0,0l1.5-9.6l0,0l-19.2-10.7l-5.7-15.9l0,0
		l-1.6,12.4l-0.2,1.8L112,126.9v8.5l-15.4,9.7l0.9,19.9h14.4L112.4,242z M161,227h-1.8l-0.8-4h2.6V227z M161,205h-1l-0.8-3h1.8V205z
		 M121,209h-2.9l-0.7-16h3.6V209z M113.8,154h5.2v31.5v0.8L113.8,154z M131.1,154h2.9v31.5l-2.7,1L131.1,154z M136,211h-2.4l-0.8-18
		h3.2V211z M152.6,185.7l-1.7,0.9l-0.8-32.6h4.1L152.6,185.7z M147.6,130l-0.4,2.5l-0.4,2.5H144v-5v-1.2v1.2H147.6z M134.4,130
		l-0.8,5H131v-5H134.4z M119,130h2.2l-0.2,1.4l-0.6,3.6H119v-3.2V130z"/>
	<path fill="#C46158" d="M112,242L112,242l-0.1-77H97.5H67.7l-14.3,77.1L104,242l1.2,0h1.9l-0.1,0L112,242z M97.9,174h5.1v9h-4.5
		h-2.9l-1.7-9H97.9z M79,238l-10-0.8V226h10V238z M81,195h-4v-6h4V195z M82,181.7l-6-0.8l-1.1-6.9H82V181.7z M99,200h-4.2l-1-7.6
		l0.2,0l0.2,0l4.9,0.2v0v0.6V200h0.3H99z"/>
	<path fill="#CF4A62" d="M210,241.9l38,0V217h-23h-15V241.9z M241,229v3h-1.6l-0.8-3H241z M234,223v3h-2.1l-0.8-3H234z M228,233v3
		h-1.9l-0.8-3H228z M220,224v3h-2.1l-0.8-3H220z"/>
	<path fill="#C46158" d="M120.3,70.9c0.2,4.2,0.6,8.2,1.1,11.7c0,0.1,0,0.3,0.1,0.4c0,0.1,0,0.1,0,0.2c0,0.3,0.1,0.6,0.1,0.8
		c0.8,6,1.7,10,1.7,10h11.3c-0.2-0.5-0.4-1-0.5-1.5c-1-2.8-1.9-6.1-2.6-9.4c-0.4-1.5-0.7-3.1-1-4.6c-0.6-3-1.1-6.1-1.4-9.1
		c0-0.4-0.1-0.8-0.1-1.1c-1.7-15.4-0.3-29.6,5.7-33.5c8.7-5.5,16.2-1,22.3,7.6c1,1.3,1.9,2.8,2.8,4.3c3.7,6.3,6.9,14,9.4,21.3
		c0,0.1,0.1,0.2,0.1,0.3c0.3,1,0.6,1.9,1,2.9c1.3,4.1,2.5,8,3.4,11.3c0,0.2,0.1,0.3,0.1,0.5c0,0.1,0,0.1,0,0.2
		c0.1,0.3,0.1,0.5,0.2,0.8c1.6,6,2.4,10,2.4,10h9.5c0,0-0.4-4-1.6-10c-0.1-0.3-0.1-0.5-0.2-0.8c0-0.2-0.1-0.5-0.1-0.7
		c-0.7-3.4-1.7-7.4-3-11.6c-0.3-0.9-0.5-1.7-0.8-2.6c-0.4-1.1-0.8-2.2-1.2-3.4c-3.1-8.4-7.5-16.9-13.7-23.5c0,0,0,0,0,0
		c-0.1-0.1-0.2-0.2-0.3-0.3c-1.1-1.2-2.3-2.3-3.6-3.4c-4.7-3.9-10.4-6.6-17-7.5c-20.7-2.6-24.4,19-23.9,37.7c0,0.1,0,0.2,0,0.3
		C120.2,69.2,120.2,70,120.3,70.9z"/>
	<polygon fill="#FFFFFE" points="98.5,183 103,183 103,174 97.9,174 93.9,174 95.6,183 	"/>
	<polygon fill="#FFFFFE" points="98.6,193 93.9,192.4 93.8,192.4 94.8,200 99,200 99,193.1 	"/>
	
		<line fill="none" stroke="#FFFFFE" stroke-width="0" stroke-linecap="round" stroke-linejoin="round" x1="99" y1="200" x2="99" y2="200"/>
	<polygon fill="#FFFFFE" points="76,180.9 82,181.7 82,174 74.9,174 	"/>
	<rect x="77" y="189" fill="#FFFFFE" width="4" height="6"/>
	<polygon fill="#FFFFFE" points="69,237.3 79,238 79,226 69,226 	"/>
	<polygon fill="#FFFFFE" points="120.4,135 121,131.4 121.2,130 119,130 119,131.8 119,135 	"/>
	<polygon fill="#FFFFFE" points="133.6,135 134.4,130 131,130 131,135 	"/>
	<polygon fill="#FFFFFE" points="146.8,135 147.2,132.5 147.6,130 144,130 144,135 	"/>
	
		<line fill="none" stroke="#FFFFFE" stroke-width="0" stroke-linecap="round" stroke-linejoin="round" x1="144" y1="130" x2="144" y2="129"/>
	<polygon fill="#FFFFFE" points="150.9,186.6 152.6,185.7 154.3,154 150.1,154 	"/>
	<polygon fill="#FFFFFE" points="134,154 131.1,154 131.3,186.5 134,185.5 	"/>
	<polygon fill="#FFFFFE" points="119,185.5 119,154 113.8,154 119,186.3 	"/>
	<polygon fill="#FFFFFE" points="133.6,211 136,211 136,193 132.8,193 	"/>
	<polygon fill="#FFFFFE" points="118.1,209 121,209 121,193 117.4,193 	"/>
	<polygon fill="#FFFFFE" points="184,198 184,195 182.3,195 183.2,198 	"/>
	<polygon fill="#FFFFFE" points="203,200 203,195 198.3,195 199.5,200 	"/>
	<polygon fill="#FFFFFE" points="160,205 161,205 161,202 159.2,202 	"/>
	<polygon fill="#FFFFFE" points="177,208 177,202 173.6,202 174.8,208 	"/>
	<polygon fill="#FFFFFE" points="215,198 215,195 212.1,195 212.9,198 	"/>
	<polygon fill="#FFFFFE" points="159.2,227 161,227 161,223 158.4,223 	"/>
	<polygon fill="#FFFFFE" points="184,227 184,223 181.1,223 182.2,227 	"/>
	<polygon fill="#FFFFFE" points="200.4,214 202,214 202,211 199.2,211 	"/>
	<polygon fill="#FFFFFE" points="220,227 220,224 217.1,224 217.9,227 	"/>
	<polygon fill="#FFFFFE" points="234,226 234,223 231.1,223 231.9,226 	"/>
	<polygon fill="#FFFFFE" points="228,236 228,233 225.3,233 226.1,236 	"/>
	<polygon fill="#FFFFFE" points="241,232 241,229 238.5,229 239.4,232 	"/>
	<polygon opacity="0.74" fill="#EBEBEB" points="256.5,243 248,243 223.2,243 210,243 163.7,243 155,243 53.3,243 107.5,242.3 
		111.4,242.3 107.1,242 104,242 53.3,242.3 53.4,242 53.4,242 53.3,242.1 53.4,242 53,242 53,278.4 258.1,268.3 	"/>
	<polygon opacity="0.74" fill="#EBEBEB" points="112.2,242 112,242 112,242.3 140.8,242 112.2,241.9 	"/>
	<polygon opacity="0.74" fill="#EBEBEB" points="156,241.9 163.7,243 163.8,241.9 	"/>
	<polygon fill="#FFC425" points="248,241.8 248,243 256.5,243 256.4,241.8 	"/>
	<polygon opacity="0.74" fill="#EBEBEB" points="248,241.8 248,243 256.5,243 256.4,241.8 	"/>
	<polygon fill="#FFC425" points="53.4,242.1 53.4,242.1 53.3,242.2 	"/>
	<polygon opacity="0.74" fill="#EBEBEB" points="53.4,242.1 53.4,242.1 53.3,242.2 	"/>
	<polygon fill="#FFC425" points="140.8,242 112,242.3 112,242.3 111.2,242.3 107.4,242.3 53.3,243 155,243 155,241.9 	"/>
	<polygon opacity="0.74" fill="#EBEBEB" points="140.8,242 112,242.3 112,242.3 111.2,242.3 107.4,242.3 53.3,243 155,243 
		155,241.9 	"/>
	<polygon fill="#019CDB" points="163.8,241.9 163.7,243 210,243 210,241.9 	"/>
	<polygon opacity="0.74" fill="#EBEBEB" points="163.8,241.9 163.7,243 210,243 210,241.9 	"/>
	<polygon fill="#FFC425" points="155,241.9 155,243 163.7,243 156,241.9 	"/>
	<polygon opacity="0.92" fill="#019CDB" points="155,241.9 155,243 163.7,243 156,241.9 	"/>
	<polygon opacity="0.74" fill="#EBEBEB" points="155,241.9 155,243 163.7,243 156,241.9 	"/>
	<rect x="112.4" y="242" fill="#4CA950" width="0" height="0.2"/>
	<rect x="112.4" y="242" opacity="0.74" fill="#EBEBEB" width="0" height="0.2"/>
	<polygon fill="#C46158" points="53.3,242.3 104,242 53.4,242.1 	"/>
	<polygon opacity="0.74" fill="#EBEBEB" points="53.3,242.3 104,242 53.4,242.1 	"/>
	<polygon fill="#C46158" points="112,242.3 112,242.2 112.2,242 107,242 111.2,242.3 112,242.3 	"/>
	<polygon opacity="0.74" fill="#EBEBEB" points="112,242.3 112,242.2 112.2,242 107,242 111.2,242.3 112,242.3 	"/>
	<polygon fill="#CF4A62" points="210,241.9 210,243 223.2,243 248,243 248,241.8 	"/>
	<polygon opacity="0.74" fill="#EBEBEB" points="210,241.9 210,243 223.2,243 248,243 248,241.8 	"/>
</g>
</svg>
